<?xml version="1.0" encoding="utf-8"?>
<!-- Generator: Adobe Illustrator 17.1.0, SVG Export Plug-In . SVG Version: 6.00 Build 0)  -->
<!DOCTYPE svg PUBLIC "-//W3C//DTD SVG 1.1//EN" "http://www.w3.org/Graphics/SVG/1.1/DTD/svg11.dtd">
<svg version="1.1" id="Calque_1" xmlns="http://www.w3.org/2000/svg" xmlns:xlink="http://www.w3.org/1999/xlink" x="0px" y="0px"
	 viewBox="0 0 90.1 77" enable-background="new 0 0 90.1 77" xml:space="preserve">

	 <defs>
<mask id="logo_mask" maskUnits="objectBoundingBox">
<path fill="#FFFFFF" d="M90.1,38.3c0-5.4-1.1-11-2.9-16.1c-1.8-5.1-4.9-9.6-8.9-13.1C71.1,3,61.4,0.2,52.1,0c-7.2-0.2-14.4,1.7-21.2,4.2
		c-2.9,0.6-5.8,1.4-8.5,2.6c-5.9,2.5-11.2,6.6-14.9,11.9c-3.7,5.3-6,11.3-7,17.7c-1,6.1-0.5,12.1,1.4,18.1
		c1.9,5.8,5.2,11.2,9.6,15.4c2.1,2,4.8,3.7,7.5,4.8c4,1.6,8.1,2.1,12.3,2.2c7,0.2,14.1-0.4,20.9-1.8c3.8-0.8,7.5-1.8,11.2-2.8
		c2.8-0.8,5.7-1.5,8.4-2.5c2.9-1.1,5.8-2.5,8.2-4.5c2.7-2.2,4.8-4.9,6.2-8C89.2,51.4,90.1,44.7,90.1,38.3z"/>
	</mask>
</defs>

<g>
	<path d="M90.1,38.3c0-5.4-1.1-11-2.9-16.1c-1.8-5.1-4.9-9.6-8.9-13.1C71.1,3,61.4,0.2,52.1,0c-7.2-0.2-14.4,1.7-21.2,4.2
		c-2.9,0.6-5.8,1.4-8.5,2.6c-5.9,2.5-11.2,6.6-14.9,11.9c-3.7,5.3-6,11.3-7,17.7c-1,6.1-0.5,12.1,1.4,18.1
		c1.9,5.8,5.2,11.2,9.6,15.4c2.1,2,4.8,3.7,7.5,4.8c4,1.6,8.1,2.1,12.3,2.2c7,0.2,14.1-0.4,20.9-1.8c3.8-0.8,7.5-1.8,11.2-2.8
		c2.8-0.8,5.7-1.5,8.4-2.5c2.9-1.1,5.8-2.5,8.2-4.5c2.7-2.2,4.8-4.9,6.2-8C89.2,51.4,90.1,44.7,90.1,38.3z"/>
</g>
</svg>
